PathFileType	4	(X/Y/Z)	./resultDataOpenSim/trcMotMarkerGrf/sub06/qtm-13-01.trc
DataRate	CameraRate	NumFrames	NumMarkers	Units	OrigDataRate	OrigDataStartFrame	OrigNumFrames
250.000000	250.000000	15	24	m	250.000000	1	553
Frame#	Time	L.Toe.Tip			R.Toe.Tip			L.Ankle.Lat			R.Ankle.Lat			L.Ankle.Med			R.Ankle.Med			L.Heel			R.Heel			L.Knee.Lat			R.Knee.Lat			L.Knee.Med			R.Knee.Med			L.Thigh.Upper			R.Thigh.Upper			L.ASIS			R.ASIS			V.Sacral			L.Acromium			R.Acromium			C7			L.Elbow			R.Elbow			L.Wrist.Lat			R.Wrist.Lat
		X1	Y1	Z1	X2	Y2	Z2	X3	Y3	Z3	X4	Y4	Z4	X5	Y5	Z5	X6	Y6	Z6	X7	Y7	Z7	X8	Y8	Z8	X9	Y9	Z9	X10	Y10	Z10	X11	Y11	Z11	X12	Y12	Z12	X13	Y13	Z13	X14	Y14	Z14	X15	Y15	Z15	X16	Y16	Z16	X17	Y17	Z17	X18	Y18	Z18	X19	Y19	Z19	X20	Y20	Z20	X21	Y21	Z21	X22	Y22	Z22	X23	Y23	Z23	X24	Y24	Z24

1	0	-1.6126581	0.032561107	-0.087843907	-1.0202383	0.11498566	0.12084697	-1.7352399	0.072287196	-0.093864824	-1.1517094	0.088061532	0.13492987	-1.7233487	0.081259717	-0.0083595053	-1.1370167	0.11642686	0.050368963	NaN	NaN	NaN	-1.1866122	0.044133227	0.064102958	-1.5805691	0.41024335	-0.11016759	-1.2657273	0.45940874	0.14304587	-1.5945011	0.41726927	0.01241101	-1.2798751	0.43780781	0.014372287	-1.4937514	0.78682531	-0.17029158	-1.4477502	0.78572396	0.17792094	-1.4076445	0.82835395	-0.13725114	-1.3723336	0.83913329	0.10917227	-1.5650007	0.91178371	0.018227606	-1.403533	1.3188733	-0.19164418	-1.4161046	1.3015972	0.1704537	-1.4853273	1.3505883	-0.012564408	-1.4014417	0.99745776	-0.27112884	-1.5675622	1.0260794	0.24262068	-1.1943863	0.86645278	-0.23795336	-1.4867996	0.79642812	0.26797726
2	0.004	-1.6124566	0.032531972	-0.08801434	-1.0078516	0.11929805	0.11989913	-1.7348991	0.072873514	-0.094012121	-1.1385187	0.089334951	0.13493881	-1.7229527	0.082019127	-0.0085310098	-1.1251616	0.1176521	0.050118215	NaN	NaN	NaN	-1.1729753	0.044228273	0.064654858	-1.5775416	0.40969129	-0.11040367	-1.2597051	0.45805526	0.14258503	-1.5909998	0.41672092	0.012193069	-1.274282	0.43568174	0.013363785	-1.4887765	0.78557258	-0.17026997	-1.4423199	0.78380365	0.17761667	-1.4021795	0.82686384	-0.13741179	-1.3662705	0.83754922	0.10893589	-1.5593183	0.91038169	0.017942149	-1.3974881	1.3177184	-0.19119863	-1.4114237	1.3000779	0.17079809	-1.4799418	1.3492847	-0.012327969	-1.3934491	0.99642621	-0.2713131	-1.5645484	1.0256516	0.24215713	-1.1855218	0.86701434	-0.23671245	-1.4855842	0.79503884	0.26854263
3	0.008	-1.6123936	0.032466774	-0.088068813	-0.99579605	0.12344375	0.11895421	-1.73454	0.073500029	-0.094175953	-1.125639	0.090577706	0.13487695	-1.722397	0.082749432	-0.0087631665	-1.1135157	0.11885731	0.049817122	NaN	NaN	NaN	-1.1596028	0.044372308	0.06503561	-1.5744407	0.40912198	-0.11065295	-1.2537014	0.45670367	0.14213359	-1.5874947	0.41612965	0.011987661	-1.2686982	0.43361247	0.01242124	-1.4837574	0.78432813	-0.17022223	-1.4364468	0.78200505	0.17740063	-1.3966996	0.82539404	-0.13759164	-1.3601725	0.83595605	0.10866082	-1.5535654	0.90898866	0.017709126	-1.3914394	1.316557	-0.19077749	-1.4066945	1.2985622	0.1711686	-1.474546	1.3480037	-0.012109996	-1.3854606	0.99539822	-0.2714732	-1.5614286	1.0252119	0.24166096	-1.1767229	0.867591	-0.23548141	-1.4842511	0.7936906	0.26910468
4	0.012	-1.6124359	0.032385635	-0.088047642	-0.98421101	0.12731425	0.11799011	-1.7341296	0.074188921	-0.09437242	-1.1132737	0.091756788	0.1346933	-1.7216853	0.083458005	-0.0090612056	-1.1022059	0.12003719	0.049425931	NaN	NaN	NaN	-1.1466361	0.044607924	0.065179819	-1.5712341	0.40854858	-0.11091813	-1.2476751	0.45536682	0.14170685	-1.5839049	0.41551478	0.011779629	-1.2631059	0.43163701	0.011590109	-1.4786769	0.78308701	-0.17016669	-1.4301085	0.7803263	0.17726902	-1.3911856	0.82394683	-0.13779814	-1.3540224	0.83436272	0.1083341	-1.5476795	0.90760853	0.017575212	-1.3853644	1.3153883	-0.19037784	-1.4018793	1.2970586	0.17156948	-1.4691099	1.3467485	-0.011914089	-1.3774707	0.99437961	-0.27157709	-1.558117	1.024739	0.24110764	-1.1680055	0.86816569	-0.23426582	-1.4827494	0.79239428	0.26965433
5	0.016	-1.6124812	0.032321807	-0.088044627	-0.97305157	0.13087223	0.11695884	-1.7336815	0.07493792	-0.09459926	-1.1015321	0.092826765	0.13434526	-1.7209679	0.084199113	-0.0093817592	-1.0913017	0.12118778	0.04892841	NaN	NaN	NaN	-1.1341924	0.044936133	0.065088089	-1.5679213	0.40799893	-0.11119184	-1.241533	0.45407351	0.14132847	-1.580175	0.41494364	0.011551806	-1.2574705	0.42976857	0.01088378	-1.4735427	0.7818186	-0.17014472	-1.4236524	0.77868471	0.17713916	-1.3856429	0.82252309	-0.13802811	-1.3478128	0.8327901	0.10796649	-1.5416322	0.90624657	0.017579365	-1.3792499	1.3142237	-0.1899713	-1.3969671	1.2955828	0.17199712	-1.4636135	1.3455175	-0.011714741	-1.3694907	0.9933783	-0.27160489	-1.55456	1.0242	0.24048242	-1.1593696	0.86870731	-0.23306832	-1.4810971	0.79113211	0.27018715
6	0.02	-1.612489	0.032278476	-0.088088657	-0.96222734	0.13410448	0.11583825	-1.7332507	0.075744304	-0.094841439	-1.0904437	0.093730733	0.13379716	-1.7203393	0.085033329	-0.0096913572	-1.0808362	0.12228956	0.048334029	NaN	NaN	NaN	-1.1224041	0.045309529	0.064741903	-1.5644926	0.40748433	-0.11146624	-1.2351855	0.4528552	0.14101374	-1.5763406	0.41445309	0.011311947	-1.251755	0.42800713	0.010289929	-1.4683482	0.78051475	-0.17016192	-1.4173361	0.77704584	0.17695878	-1.3800856	0.82113692	-0.13826751	-1.3415266	0.83125458	0.10757479	-1.5354233	0.90491488	0.017752271	-1.3731065	1.3130822	-0.18953702	-1.3919602	1.2941474	0.17245046	-1.4580522	1.3443187	-0.011480619	-1.3615369	0.99240834	-0.2715713	-1.5507107	1.0235506	0.23977155	-1.1508198	0.86920693	-0.23188617	-1.4793488	0.7898853	0.27070837
7	0.024	-1.6124691	0.032240853	-0.088163648	-0.95180574	0.13692246	0.11471644	-1.7328372	0.076624457	-0.095099559	-1.079992	0.094422004	0.13305574	-1.7197311	0.085974122	-0.010002185	-1.0708391	0.12330417	0.04766374	NaN	NaN	NaN	-1.111349	0.045677372	0.064099226	-1.5609349	0.40699628	-0.111736	-1.2286132	0.45173972	0.14074713	-1.5724557	0.41401559	0.011076807	-1.2459341	0.42637104	0.0097893502	-1.4630825	0.77926746	-0.17016301	-1.4110262	0.77548172	0.17678395	-1.3745124	0.81980909	-0.13849867	-1.3351597	0.82976963	0.10717123	-1.5290892	0.90363427	0.018099014	-1.36696	1.3119819	-0.18908094	-1.3868668	1.2927568	0.17292381	-1.4524355	1.3431588	-0.011224614	-1.3536235	0.99148944	-0.27151034	-1.546517	1.0227403	0.23895896	-1.1423632	0.86967569	-0.23071335	-1.4775579	0.78865954	0.27122325
8	0.028	-1.612441	0.03219415	-0.088250064	-0.94200482	0.13916986	0.11375237	-1.7323627	0.077595156	-0.095394748	-1.0701542	0.094885748	0.13217834	-1.7190788	0.086994265	-0.010339543	-1.0613467	0.12418309	0.046929778	NaN	NaN	NaN	-1.1010246	0.04601017	0.063161509	-1.5572499	0.40652087	-0.11199609	-1.221869	0.45075345	0.14048543	-1.5685192	0.41358154	0.010848317	-1.2399797	0.42490925	0.0093634709	-1.4577536	0.77821102	-0.17006551	-1.4044113	0.77409149	0.17671184	-1.3689103	0.818548	-0.13871678	-1.3287332	0.8283475	0.10675961	-1.5227002	0.90242272	0.018575954	-1.3608142	1.3109328	-0.18861517	-1.3816998	1.291411	0.1734115	-1.4467718	1.3420356	-0.010977994	-1.3457622	0.99063053	-0.27144542	-1.5419387	1.0217312	0.23803752	-1.1339893	0.87011893	-0.22954305	-1.4756993	0.78748119	0.27174346
9	0.032	-1.6124174	0.032132322	-0.08833674	-0.93295443	0.14075342	0.11300097	-1.731749	0.078655365	-0.095747741	-1.0609248	0.095131989	0.13123011	-1.7185288	0.088055579	-0.010676897	-1.052387	0.12487548	0.046131936	NaN	NaN	NaN	-1.091413	0.046268045	0.062028307	-1.5534402	0.40605409	-0.1122475	-1.2150286	0.44991463	0.14018645	-1.5644897	0.41312927	0.01061359	-1.2338598	0.42368027	0.0089901863	-1.4523797	0.77736469	-0.1698312	-1.3974294	0.7728963	0.17675776	-1.36327	0.81734641	-0.13892615	-1.3222764	0.82699617	0.10633774	-1.5163271	0.90127866	0.019105303	-1.354645	1.3099336	-0.18813948	-1.3764716	1.2901111	0.17391381	-1.4410517	1.3409531	-0.010712418	-1.3379596	0.98982272	-0.27137946	-1.5369951	1.0205372	0.23703737	-1.1256772	0.87052802	-0.22837046	-1.47364	0.78638023	0.27229257
10	0.036	-1.6123988	0.032063024	-0.088422087	-0.92458289	0.14168506	0.11234375	-1.7309814	0.079798613	-0.096162812	-1.0523064	0.09517108	0.13024475	-1.7184955	0.089085539	-0.010900864	-1.0439715	0.1253316	0.045271187	NaN	NaN	NaN	-1.0825215	0.046379464	0.060852316	-1.549493	0.40560935	-0.11250185	-1.2081255	0.44923001	0.1398355	-1.5603246	0.41267655	0.010356727	-1.2275537	0.42272735	0.0086439946	-1.4469651	0.77660401	-0.16950544	-1.3903229	0.77185377	0.17685279	-1.3575855	0.81620349	-0.13912337	-1.3158075	0.82572027	0.10590503	-1.510003	0.90018591	0.019634893	-1.3484289	1.3089774	-0.18764646	-1.3711794	1.288861	0.17443425	-1.4352602	1.3399217	-0.010369134	-1.3302081	0.9890549	-0.27128956	-1.5318124	1.0192597	0.23605044	-1.1174278	0.87089634	-0.22719888	-1.4712466	0.78537583	0.2728793
11	0.04	-1.612376	0.032002295	-0.088511012	-0.91676068	0.14201087	0.11160721	-1.7301049	0.08102263	-0.096626744	-1.044294	0.095000889	0.12923047	-1.7193983	0.090003386	-0.010890505	-1.0361034	0.12550542	0.044358769	NaN	NaN	NaN	-1.0743702	0.046273269	0.059752131	-1.545389	0.40520067	-0.11276899	-1.201146	0.44869765	0.1394472	-1.5560083	0.41225601	0.010070894	-1.2210514	0.42206878	0.0083069087	-1.4414978	0.77578672	-0.16916958	-1.3832815	0.77095137	0.17695015	-1.3518485	0.8151352	-0.1392999	-1.3093268	0.82452326	0.10546357	-1.5037177	0.89914294	0.020182185	-1.3421624	1.3080617	-0.18712644	-1.3658037	1.287664	0.17497648	-1.4294019	1.338943	-0.0099489192	-1.3224843	0.98832761	-0.27112153	-1.5265942	1.0180619	0.23520643	-1.1092683	0.8712317	-0.22604065	-1.4684851	0.7844734	0.27348402
12	0.044	-1.6123369	0.031961687	-0.088610127	-0.90945261	0.1417855	0.11069155	-1.7291744	0.082326569	-0.097123051	-1.0368798	0.094613804	0.12819723	-1.7209538	0.090879469	-0.010730774	-1.0287851	0.12536257	0.043408091	NaN	NaN	NaN	-1.0669685	0.045922983	0.058777449	-1.541119	0.40481665	-0.11304257	-1.1940781	0.44830232	0.13904393	-1.5515563	0.41188119	0.0097630725	-1.2143412	0.42170244	0.0079829666	-1.4359619	0.77487177	-0.16886711	-1.3762531	0.77022136	0.17706709	-1.3460565	0.81415362	-0.13945804	-1.3028075	0.82341203	0.10501709	-1.497419	0.89816861	0.020831428	-1.3358575	1.3071952	-0.18657065	-1.3603225	1.2865163	0.17554016	-1.423499	1.3380101	-0.0095108397	-1.3147679	0.98764682	-0.27082016	-1.5215027	1.0170707	0.23459517	-1.1012219	0.87154672	-0.22490784	-1.4654126	0.78366818	0.27408282
13	0.048	-1.6122744	0.031941163	-0.088723179	-0.90270797	0.14108491	0.10959141	-1.7281907	0.083710633	-0.097654924	-1.0300601	0.094008197	0.12716509	-1.722018	0.091963643	-0.010754615	-1.0220229	0.12488804	0.042423625	NaN	NaN	NaN	-1.0603075	0.04535109	0.057907187	-1.5366854	0.40442909	-0.11330529	-1.1869287	0.44801648	0.13863218	-1.5469813	0.41153154	0.0094485565	-1.2074155	0.42161362	0.0076971298	-1.4303453	0.77392746	-0.1685867	-1.3691712	0.76966581	0.17721866	-1.340224	0.81325398	-0.13961927	-1.2962153	0.82240359	0.10457842	-1.4910003	0.89727108	0.021717148	-1.3295253	1.3063917	-0.18598007	-1.3547268	1.2854104	0.17612088	-1.4175719	1.3371156	-0.0091063479	-1.3070675	0.98701774	-0.27039491	-1.5165628	1.0163036	0.23421092	-1.0932856	0.87184356	-0.22380087	-1.462216	0.78293146	0.27465868
14	0.052	-1.6121896	0.031932968	-0.088847847	-0.89656183	0.13997352	0.10834322	-1.7270971	0.0851778	-0.098246173	-1.0238309	0.093189671	0.12615349	-1.7216819	0.093439551	-0.011226676	-1.0158257	0.12408636	0.041404076	NaN	NaN	NaN	-1.0543702	0.044594087	0.057073859	-1.5320955	0.40402482	-0.11354625	-1.1797118	0.44781347	0.13819727	-1.5422861	0.41116587	0.0091480598	-1.2002842	0.42177741	0.0074697585	-1.4246414	0.77303981	-0.16829545	-1.362149	0.76922475	0.17737736	-1.3343808	0.81242451	-0.13982334	-1.2895472	0.82151928	0.10417015	-1.4843333	0.89645058	0.022968213	-1.3231652	1.3056573	-0.18536228	-1.3490314	1.2843487	0.17671597	-1.4116209	1.3362579	-0.0087304202	-1.2994211	0.98644824	-0.26992987	-1.5116881	1.0156996	0.2339794	-1.0854419	0.87211497	-0.22270754	-1.4592197	0.78220848	0.27519649
15	0.056	-1.6120879	0.031929947	-0.08897638	-0.89098917	0.13846673	0.10697334	-1.7258571	0.086731819	-0.098907658	-1.0181865	0.092165794	0.12516364	-1.7201034	0.095255407	-0.012107939	-1.0101984	0.12297967	0.040350686	NaN	NaN	NaN	-1.0491417	0.043669955	0.056236866	-1.5273533	0.40361082	-0.11376795	-1.1724409	0.44768177	0.13772022	-1.5374974	0.41076029	0.0088836786	-1.1929803	0.42215793	0.0072919875	-1.4188476	0.77223413	-0.16796931	-1.3553446	0.76883488	0.17751129	-1.3285501	0.81165231	-0.14010259	-1.2828201	0.82077076	0.10381375	-1.4773799	0.8957504	0.024563928	-1.3167685	1.3049912	-0.18471661	-1.3432684	1.2833474	0.1773271	-1.4056254	1.3354417	-0.0083275424	-1.2918608	0.98594455	-0.26949337	-1.5067764	1.0151958	0.23382316	-1.077686	0.87235753	-0.22161564	-1.4566205	0.7814685	0.27569531
